<svg width="32" height="32" viewBox="0 0 32 32" fill="none" xmlns="http://www.w3.org/2000/svg">
<g clip-path="url(#clip0_15_52)">
<rect width="32" height="32" fill="#FF0420"/>
<path d="M16 24.1466V30.1246C9.85082 30.1246 4.8645 25.1382 4.8645 18.989C4.8645 12.8398 9.85082 7.85352 16 7.85352V1.87546C22.1491 1.87546 27.1355 6.86185 27.1355 13.011C27.1355 19.1602 22.1491 24.1466 16 24.1466Z" fill="white"/>
<path d="M16 0C7.16425 0 0 7.16424 0 16C0 24.8357 7.16425 32 16 32C24.8358 32 32 24.8357 32 16C32 7.16424 24.8358 0 16 0ZM16 24.1465V30.1245C9.85081 30.1245 4.86449 25.1381 4.86449 18.989C4.86449 12.8398 9.85081 7.85352 16 7.85352V1.87545C22.1491 1.87545 27.1355 6.86184 27.1355 13.011C27.1355 19.1601 22.1491 24.1465 16 24.1465ZM21.5091 15.9484V16.0516C19.0804 17.2613 17.2612 19.0804 16.0516 21.5091H15.9484C14.7387 19.0804 12.9195 17.2613 10.4908 16.0516V15.9484C12.9195 14.7387 14.7387 12.9196 15.9484 10.4909H16.0516C17.2612 12.9196 19.0804 14.7387 21.5091 15.9484Z" fill="#FF0420"/>
</g>
<defs>
<clipPath id="clip0_15_52">
<rect width="32" height="32" fill="white"/>
</clipPath>
</defs>
</svg>
